<?xml version="1.0" encoding="utf-8" standalone="no"?>
<!DOCTYPE svg PUBLIC "-//W3C//DTD SVG 1.1//EN"
  "http://www.w3.org/Graphics/SVG/1.1/DTD/svg11.dtd">
<svg xmlns:xlink="http://www.w3.org/1999/xlink" width="460.8pt" height="345.6pt" viewBox="0 0 460.8 345.6" xmlns="http://www.w3.org/2000/svg" version="1.1">
 <metadata>
  <rdf:RDF xmlns:dc="http://purl.org/dc/elements/1.1/" xmlns:cc="http://creativecommons.org/ns#" xmlns:rdf="http://www.w3.org/1999/02/22-rdf-syntax-ns#">
   <cc:Work>
    <dc:type rdf:resource="http://purl.org/dc/dcmitype/StillImage"/>
    <dc:date>1980-01-01T00:00:00+00:00</dc:date>
    <dc:format>image/svg+xml</dc:format>
    <dc:creator>
     <cc:Agent>
      <dc:title>Matplotlib v3.9.2, https://matplotlib.org/</dc:title>
     </cc:Agent>
    </dc:creator>
   </cc:Work>
  </rdf:RDF>
 </metadata>
 <defs>
  <style type="text/css">*{stroke-linejoin: round; stroke-linecap: butt}</style>
 </defs>
 <g id="figure_1">
  <g id="patch_1">
   <path d="M 0 345.6 
L 460.8 345.6 
L 460.8 0 
L 0 0 
z
" style="fill: #ffffff"/>
  </g>
  <g id="axes_1">
   <g id="patch_2">
    <path d="M 57.6 307.584 
L 414.72 307.584 
L 414.72 41.472 
L 57.6 41.472 
z
" style="fill: #ffffff"/>
   </g>
   <g id="matplotlib.axis_1">
    <g id="xtick_1">
     <g id="line2d_1">
      <defs>
       <path id="mb2e6dced77" d="M 0 0 
L 0 3.5 
" style="stroke: #000000; stroke-width: 0.8"/>
      </defs>
      <g>
       <use xlink:href="#mb2e6dced77" x="73.832727" y="307.584" style="stroke: #000000; stroke-width: 0.8"/>
      </g>
     </g>
     <g id="text_1">
      <!-- 1 o -->
      <g transform="translate(64.437102 323.702125) scale(0.12 -0.12)">
       <defs>
        <path id="DejaVuSans-31" d="M 794 531 
L 1825 531 
L 1825 4091 
L 703 3866 
L 703 4441 
L 1819 4666 
L 2450 4666 
L 2450 531 
L 3481 531 
L 3481 0 
L 794 0 
L 794 531 
z
" transform="scale(0.015625)"/>
        <path id="DejaVuSans-20" transform="scale(0.015625)"/>
        <path id="DejaVuSans-6f" d="M 1959 3097 
Q 1497 3097 1228 2736 
Q 959 2375 959 1747 
Q 959 1119 1226 758 
Q 1494 397 1959 397 
Q 2419 397 2687 759 
Q 2956 1122 2956 1747 
Q 2956 2369 2687 2733 
Q 2419 3097 1959 3097 
z
M 1959 3584 
Q 2709 3584 3137 3096 
Q 3566 2609 3566 1747 
Q 3566 888 3137 398 
Q 2709 -91 1959 -91 
Q 1206 -91 779 398 
Q 353 888 353 1747 
Q 353 2609 779 3096 
Q 1206 3584 1959 3584 
z
" transform="scale(0.015625)"/>
       </defs>
       <use xlink:href="#DejaVuSans-31"/>
       <use xlink:href="#DejaVuSans-20" x="63.623047"/>
       <use xlink:href="#DejaVuSans-6f" x="95.410156"/>
      </g>
     </g>
    </g>
    <g id="xtick_2">
     <g id="line2d_2">
      <g>
       <use xlink:href="#mb2e6dced77" x="138.763636" y="307.584" style="stroke: #000000; stroke-width: 0.8"/>
      </g>
     </g>
     <g id="text_2">
      <!-- 64 o -->
      <g transform="translate(125.550511 323.702125) scale(0.12 -0.12)">
       <defs>
        <path id="DejaVuSans-36" d="M 2113 2584 
Q 1688 2584 1439 2293 
Q 1191 2003 1191 1497 
Q 1191 994 1439 701 
Q 1688 409 2113 409 
Q 2538 409 2786 701 
Q 3034 994 3034 1497 
Q 3034 2003 2786 2293 
Q 2538 2584 2113 2584 
z
M 3366 4563 
L 3366 3988 
Q 3128 4100 2886 4159 
Q 2644 4219 2406 4219 
Q 1781 4219 1451 3797 
Q 1122 3375 1075 2522 
Q 1259 2794 1537 2939 
Q 1816 3084 2150 3084 
Q 2853 3084 3261 2657 
Q 3669 2231 3669 1497 
Q 3669 778 3244 343 
Q 2819 -91 2113 -91 
Q 1303 -91 875 529 
Q 447 1150 447 2328 
Q 447 3434 972 4092 
Q 1497 4750 2381 4750 
Q 2619 4750 2861 4703 
Q 3103 4656 3366 4563 
z
" transform="scale(0.015625)"/>
        <path id="DejaVuSans-34" d="M 2419 4116 
L 825 1625 
L 2419 1625 
L 2419 4116 
z
M 2253 4666 
L 3047 4666 
L 3047 1625 
L 3713 1625 
L 3713 1100 
L 3047 1100 
L 3047 0 
L 2419 0 
L 2419 1100 
L 313 1100 
L 313 1709 
L 2253 4666 
z
" transform="scale(0.015625)"/>
       </defs>
       <use xlink:href="#DejaVuSans-36"/>
       <use xlink:href="#DejaVuSans-34" x="63.623047"/>
       <use xlink:href="#DejaVuSans-20" x="127.246094"/>
       <use xlink:href="#DejaVuSans-6f" x="159.033203"/>
      </g>
     </g>
    </g>
    <g id="xtick_3">
     <g id="line2d_3">
      <g>
       <use xlink:href="#mb2e6dced77" x="203.694545" y="307.584" style="stroke: #000000; stroke-width: 0.8"/>
      </g>
     </g>
     <g id="text_3">
      <!-- 4.0 Ko -->
      <g transform="translate(184.939858 323.702125) scale(0.12 -0.12)">
       <defs>
        <path id="DejaVuSans-2e" d="M 684 794 
L 1344 794 
L 1344 0 
L 684 0 
L 684 794 
z
" transform="scale(0.015625)"/>
        <path id="DejaVuSans-30" d="M 2034 4250 
Q 1547 4250 1301 3770 
Q 1056 3291 1056 2328 
Q 1056 1369 1301 889 
Q 1547 409 2034 409 
Q 2525 409 2770 889 
Q 3016 1369 3016 2328 
Q 3016 3291 2770 3770 
Q 2525 4250 2034 4250 
z
M 2034 4750 
Q 2819 4750 3233 4129 
Q 3647 3509 3647 2328 
Q 3647 1150 3233 529 
Q 2819 -91 2034 -91 
Q 1250 -91 836 529 
Q 422 1150 422 2328 
Q 422 3509 836 4129 
Q 1250 4750 2034 4750 
z
" transform="scale(0.015625)"/>
        <path id="DejaVuSans-4b" d="M 628 4666 
L 1259 4666 
L 1259 2694 
L 3353 4666 
L 4166 4666 
L 1850 2491 
L 4331 0 
L 3500 0 
L 1259 2247 
L 1259 0 
L 628 0 
L 628 4666 
z
" transform="scale(0.015625)"/>
       </defs>
       <use xlink:href="#DejaVuSans-34"/>
       <use xlink:href="#DejaVuSans-2e" x="63.623047"/>
       <use xlink:href="#DejaVuSans-30" x="95.410156"/>
       <use xlink:href="#DejaVuSans-20" x="159.033203"/>
       <use xlink:href="#DejaVuSans-4b" x="190.820312"/>
       <use xlink:href="#DejaVuSans-6f" x="251.396484"/>
      </g>
     </g>
    </g>
    <g id="xtick_4">
     <g id="line2d_4">
      <g>
       <use xlink:href="#mb2e6dced77" x="268.625455" y="307.584" style="stroke: #000000; stroke-width: 0.8"/>
      </g>
     </g>
     <g id="text_4">
      <!-- 256.0 Ko -->
      <g transform="translate(242.235767 323.702125) scale(0.12 -0.12)">
       <defs>
        <path id="DejaVuSans-32" d="M 1228 531 
L 3431 531 
L 3431 0 
L 469 0 
L 469 531 
Q 828 903 1448 1529 
Q 2069 2156 2228 2338 
Q 2531 2678 2651 2914 
Q 2772 3150 2772 3378 
Q 2772 3750 2511 3984 
Q 2250 4219 1831 4219 
Q 1534 4219 1204 4116 
Q 875 4013 500 3803 
L 500 4441 
Q 881 4594 1212 4672 
Q 1544 4750 1819 4750 
Q 2544 4750 2975 4387 
Q 3406 4025 3406 3419 
Q 3406 3131 3298 2873 
Q 3191 2616 2906 2266 
Q 2828 2175 2409 1742 
Q 1991 1309 1228 531 
z
" transform="scale(0.015625)"/>
        <path id="DejaVuSans-35" d="M 691 4666 
L 3169 4666 
L 3169 4134 
L 1269 4134 
L 1269 2991 
Q 1406 3038 1543 3061 
Q 1681 3084 1819 3084 
Q 2600 3084 3056 2656 
Q 3513 2228 3513 1497 
Q 3513 744 3044 326 
Q 2575 -91 1722 -91 
Q 1428 -91 1123 -41 
Q 819 9 494 109 
L 494 744 
Q 775 591 1075 516 
Q 1375 441 1709 441 
Q 2250 441 2565 725 
Q 2881 1009 2881 1497 
Q 2881 1984 2565 2268 
Q 2250 2553 1709 2553 
Q 1456 2553 1204 2497 
Q 953 2441 691 2322 
L 691 4666 
z
" transform="scale(0.015625)"/>
       </defs>
       <use xlink:href="#DejaVuSans-32"/>
       <use xlink:href="#DejaVuSans-35" x="63.623047"/>
       <use xlink:href="#DejaVuSans-36" x="127.246094"/>
       <use xlink:href="#DejaVuSans-2e" x="190.869141"/>
       <use xlink:href="#DejaVuSans-30" x="222.65625"/>
       <use xlink:href="#DejaVuSans-20" x="286.279297"/>
       <use xlink:href="#DejaVuSans-4b" x="318.066406"/>
       <use xlink:href="#DejaVuSans-6f" x="378.642578"/>
      </g>
     </g>
    </g>
    <g id="xtick_5">
     <g id="line2d_5">
      <g>
       <use xlink:href="#mb2e6dced77" x="333.556364" y="307.584" style="stroke: #000000; stroke-width: 0.8"/>
      </g>
     </g>
     <g id="text_5">
      <!-- 16.0 Mo -->
      <g transform="translate(309.441989 323.702125) scale(0.12 -0.12)">
       <defs>
        <path id="DejaVuSans-4d" d="M 628 4666 
L 1569 4666 
L 2759 1491 
L 3956 4666 
L 4897 4666 
L 4897 0 
L 4281 0 
L 4281 4097 
L 3078 897 
L 2444 897 
L 1241 4097 
L 1241 0 
L 628 0 
L 628 4666 
z
" transform="scale(0.015625)"/>
       </defs>
       <use xlink:href="#DejaVuSans-31"/>
       <use xlink:href="#DejaVuSans-36" x="63.623047"/>
       <use xlink:href="#DejaVuSans-2e" x="127.246094"/>
       <use xlink:href="#DejaVuSans-30" x="159.033203"/>
       <use xlink:href="#DejaVuSans-20" x="222.65625"/>
       <use xlink:href="#DejaVuSans-4d" x="254.443359"/>
       <use xlink:href="#DejaVuSans-6f" x="340.722656"/>
      </g>
     </g>
    </g>
    <g id="xtick_6">
     <g id="line2d_6">
      <g>
       <use xlink:href="#mb2e6dced77" x="398.487273" y="307.584" style="stroke: #000000; stroke-width: 0.8"/>
      </g>
     </g>
     <g id="text_6">
      <!-- 1.0 Go -->
      <g transform="translate(378.71821 323.702125) scale(0.12 -0.12)">
       <defs>
        <path id="DejaVuSans-47" d="M 3809 666 
L 3809 1919 
L 2778 1919 
L 2778 2438 
L 4434 2438 
L 4434 434 
Q 4069 175 3628 42 
Q 3188 -91 2688 -91 
Q 1594 -91 976 548 
Q 359 1188 359 2328 
Q 359 3472 976 4111 
Q 1594 4750 2688 4750 
Q 3144 4750 3555 4637 
Q 3966 4525 4313 4306 
L 4313 3634 
Q 3963 3931 3569 4081 
Q 3175 4231 2741 4231 
Q 1884 4231 1454 3753 
Q 1025 3275 1025 2328 
Q 1025 1384 1454 906 
Q 1884 428 2741 428 
Q 3075 428 3337 486 
Q 3600 544 3809 666 
z
" transform="scale(0.015625)"/>
       </defs>
       <use xlink:href="#DejaVuSans-31"/>
       <use xlink:href="#DejaVuSans-2e" x="63.623047"/>
       <use xlink:href="#DejaVuSans-30" x="95.410156"/>
       <use xlink:href="#DejaVuSans-20" x="159.033203"/>
       <use xlink:href="#DejaVuSans-47" x="190.820312"/>
       <use xlink:href="#DejaVuSans-6f" x="268.310547"/>
      </g>
     </g>
    </g>
   </g>
   <g id="matplotlib.axis_2">
    <g id="ytick_1">
     <g id="line2d_7">
      <defs>
       <path id="m1752321fda" d="M 0 0 
L -3.5 0 
" style="stroke: #000000; stroke-width: 0.8"/>
      </defs>
      <g>
       <use xlink:href="#m1752321fda" x="57.6" y="300.46183" style="stroke: #000000; stroke-width: 0.8"/>
      </g>
     </g>
     <g id="text_7">
      <!-- 10 ns -->
      <g transform="translate(17.66 305.020893) scale(0.12 -0.12)">
       <defs>
        <path id="DejaVuSans-6e" d="M 3513 2113 
L 3513 0 
L 2938 0 
L 2938 2094 
Q 2938 2591 2744 2837 
Q 2550 3084 2163 3084 
Q 1697 3084 1428 2787 
Q 1159 2491 1159 1978 
L 1159 0 
L 581 0 
L 581 3500 
L 1159 3500 
L 1159 2956 
Q 1366 3272 1645 3428 
Q 1925 3584 2291 3584 
Q 2894 3584 3203 3211 
Q 3513 2838 3513 2113 
z
" transform="scale(0.015625)"/>
        <path id="DejaVuSans-73" d="M 2834 3397 
L 2834 2853 
Q 2591 2978 2328 3040 
Q 2066 3103 1784 3103 
Q 1356 3103 1142 2972 
Q 928 2841 928 2578 
Q 928 2378 1081 2264 
Q 1234 2150 1697 2047 
L 1894 2003 
Q 2506 1872 2764 1633 
Q 3022 1394 3022 966 
Q 3022 478 2636 193 
Q 2250 -91 1575 -91 
Q 1294 -91 989 -36 
Q 684 19 347 128 
L 347 722 
Q 666 556 975 473 
Q 1284 391 1588 391 
Q 1994 391 2212 530 
Q 2431 669 2431 922 
Q 2431 1156 2273 1281 
Q 2116 1406 1581 1522 
L 1381 1569 
Q 847 1681 609 1914 
Q 372 2147 372 2553 
Q 372 3047 722 3315 
Q 1072 3584 1716 3584 
Q 2034 3584 2315 3537 
Q 2597 3491 2834 3397 
z
" transform="scale(0.015625)"/>
       </defs>
       <use xlink:href="#DejaVuSans-31"/>
       <use xlink:href="#DejaVuSans-30" x="63.623047"/>
       <use xlink:href="#DejaVuSans-20" x="127.246094"/>
       <use xlink:href="#DejaVuSans-6e" x="159.033203"/>
       <use xlink:href="#DejaVuSans-73" x="222.412109"/>
      </g>
     </g>
    </g>
    <g id="ytick_2">
     <g id="line2d_8">
      <g>
       <use xlink:href="#m1752321fda" x="57.6" y="266.424348" style="stroke: #000000; stroke-width: 0.8"/>
      </g>
     </g>
     <g id="text_8">
      <!-- 100 ns -->
      <g transform="translate(10.025 270.983411) scale(0.12 -0.12)">
       <use xlink:href="#DejaVuSans-31"/>
       <use xlink:href="#DejaVuSans-30" x="63.623047"/>
       <use xlink:href="#DejaVuSans-30" x="127.246094"/>
       <use xlink:href="#DejaVuSans-20" x="190.869141"/>
       <use xlink:href="#DejaVuSans-6e" x="222.65625"/>
       <use xlink:href="#DejaVuSans-73" x="286.035156"/>
      </g>
     </g>
    </g>
    <g id="ytick_3">
     <g id="line2d_9">
      <g>
       <use xlink:href="#m1752321fda" x="57.6" y="232.386866" style="stroke: #000000; stroke-width: 0.8"/>
      </g>
     </g>
     <g id="text_9">
      <!-- 1 µs -->
      <g transform="translate(25.265 236.945928) scale(0.12 -0.12)">
       <defs>
        <path id="DejaVuSans-b5" d="M 544 -1331 
L 544 3500 
L 1119 3500 
L 1119 1325 
Q 1119 872 1334 640 
Q 1550 409 1972 409 
Q 2434 409 2667 671 
Q 2900 934 2900 1459 
L 2900 3500 
L 3475 3500 
L 3475 806 
Q 3475 619 3529 530 
Q 3584 441 3700 441 
Q 3728 441 3778 458 
Q 3828 475 3916 513 
L 3916 50 
Q 3788 -22 3673 -56 
Q 3559 -91 3450 -91 
Q 3234 -91 3106 31 
Q 2978 153 2931 403 
Q 2775 156 2548 32 
Q 2322 -91 2016 -91 
Q 1697 -91 1473 31 
Q 1250 153 1119 397 
L 1119 -1331 
L 544 -1331 
z
" transform="scale(0.015625)"/>
       </defs>
       <use xlink:href="#DejaVuSans-31"/>
       <use xlink:href="#DejaVuSans-20" x="63.623047"/>
       <use xlink:href="#DejaVuSans-b5" x="95.410156"/>
       <use xlink:href="#DejaVuSans-73" x="159.033203"/>
      </g>
     </g>
    </g>
    <g id="ytick_4">
     <g id="line2d_10">
      <g>
       <use xlink:href="#m1752321fda" x="57.6" y="198.349383" style="stroke: #000000; stroke-width: 0.8"/>
      </g>
     </g>
     <g id="text_10">
      <!-- 10 µs -->
      <g transform="translate(17.63 202.908446) scale(0.12 -0.12)">
       <use xlink:href="#DejaVuSans-31"/>
       <use xlink:href="#DejaVuSans-30" x="63.623047"/>
       <use xlink:href="#DejaVuSans-20" x="127.246094"/>
       <use xlink:href="#DejaVuSans-b5" x="159.033203"/>
       <use xlink:href="#DejaVuSans-73" x="222.65625"/>
      </g>
     </g>
    </g>
    <g id="ytick_5">
     <g id="line2d_11">
      <g>
       <use xlink:href="#m1752321fda" x="57.6" y="164.311901" style="stroke: #000000; stroke-width: 0.8"/>
      </g>
     </g>
     <g id="text_11">
      <!-- 100 µs -->
      <g transform="translate(9.995 168.870964) scale(0.12 -0.12)">
       <use xlink:href="#DejaVuSans-31"/>
       <use xlink:href="#DejaVuSans-30" x="63.623047"/>
       <use xlink:href="#DejaVuSans-30" x="127.246094"/>
       <use xlink:href="#DejaVuSans-20" x="190.869141"/>
       <use xlink:href="#DejaVuSans-b5" x="222.65625"/>
       <use xlink:href="#DejaVuSans-73" x="286.279297"/>
      </g>
     </g>
    </g>
    <g id="ytick_6">
     <g id="line2d_12">
      <g>
       <use xlink:href="#m1752321fda" x="57.6" y="130.274419" style="stroke: #000000; stroke-width: 0.8"/>
      </g>
     </g>
     <g id="text_12">
      <!-- 1 ms -->
      <g transform="translate(21.21125 134.833481) scale(0.12 -0.12)">
       <defs>
        <path id="DejaVuSans-6d" d="M 3328 2828 
Q 3544 3216 3844 3400 
Q 4144 3584 4550 3584 
Q 5097 3584 5394 3201 
Q 5691 2819 5691 2113 
L 5691 0 
L 5113 0 
L 5113 2094 
Q 5113 2597 4934 2840 
Q 4756 3084 4391 3084 
Q 3944 3084 3684 2787 
Q 3425 2491 3425 1978 
L 3425 0 
L 2847 0 
L 2847 2094 
Q 2847 2600 2669 2842 
Q 2491 3084 2119 3084 
Q 1678 3084 1418 2786 
Q 1159 2488 1159 1978 
L 1159 0 
L 581 0 
L 581 3500 
L 1159 3500 
L 1159 2956 
Q 1356 3278 1631 3431 
Q 1906 3584 2284 3584 
Q 2666 3584 2933 3390 
Q 3200 3197 3328 2828 
z
" transform="scale(0.015625)"/>
       </defs>
       <use xlink:href="#DejaVuSans-31"/>
       <use xlink:href="#DejaVuSans-20" x="63.623047"/>
       <use xlink:href="#DejaVuSans-6d" x="95.410156"/>
       <use xlink:href="#DejaVuSans-73" x="192.822266"/>
      </g>
     </g>
    </g>
    <g id="ytick_7">
     <g id="line2d_13">
      <g>
       <use xlink:href="#m1752321fda" x="57.6" y="96.236936" style="stroke: #000000; stroke-width: 0.8"/>
      </g>
     </g>
     <g id="text_13">
      <!-- 10 ms -->
      <g transform="translate(13.57625 100.795999) scale(0.12 -0.12)">
       <use xlink:href="#DejaVuSans-31"/>
       <use xlink:href="#DejaVuSans-30" x="63.623047"/>
       <use xlink:href="#DejaVuSans-20" x="127.246094"/>
       <use xlink:href="#DejaVuSans-6d" x="159.033203"/>
       <use xlink:href="#DejaVuSans-73" x="256.445312"/>
      </g>
     </g>
    </g>
    <g id="ytick_8">
     <g id="line2d_14">
      <g>
       <use xlink:href="#m1752321fda" x="57.6" y="62.199454" style="stroke: #000000; stroke-width: 0.8"/>
      </g>
     </g>
     <g id="text_14">
      <!-- 100 ms -->
      <g transform="translate(5.94125 66.758516) scale(0.12 -0.12)">
       <use xlink:href="#DejaVuSans-31"/>
       <use xlink:href="#DejaVuSans-30" x="63.623047"/>
       <use xlink:href="#DejaVuSans-30" x="127.246094"/>
       <use xlink:href="#DejaVuSans-20" x="190.869141"/>
       <use xlink:href="#DejaVuSans-6d" x="222.65625"/>
       <use xlink:href="#DejaVuSans-73" x="320.068359"/>
      </g>
     </g>
    </g>
    <g id="ytick_9">
     <g id="line2d_15">
      <defs>
       <path id="m2d897423c1" d="M 0 0 
L -2 0 
" style="stroke: #000000; stroke-width: 0.6"/>
      </defs>
      <g>
       <use xlink:href="#m2d897423c1" x="57.6" y="305.734303" style="stroke: #000000; stroke-width: 0.6"/>
      </g>
     </g>
    </g>
    <g id="ytick_10">
     <g id="line2d_16">
      <g>
       <use xlink:href="#m2d897423c1" x="57.6" y="303.760403" style="stroke: #000000; stroke-width: 0.6"/>
      </g>
     </g>
    </g>
    <g id="ytick_11">
     <g id="line2d_17">
      <g>
       <use xlink:href="#m2d897423c1" x="57.6" y="302.0193" style="stroke: #000000; stroke-width: 0.6"/>
      </g>
     </g>
    </g>
    <g id="ytick_12">
     <g id="line2d_18">
      <g>
       <use xlink:href="#m2d897423c1" x="57.6" y="290.215527" style="stroke: #000000; stroke-width: 0.6"/>
      </g>
     </g>
    </g>
    <g id="ytick_13">
     <g id="line2d_19">
      <g>
       <use xlink:href="#m2d897423c1" x="57.6" y="284.221824" style="stroke: #000000; stroke-width: 0.6"/>
      </g>
     </g>
    </g>
    <g id="ytick_14">
     <g id="line2d_20">
      <g>
       <use xlink:href="#m2d897423c1" x="57.6" y="279.969224" style="stroke: #000000; stroke-width: 0.6"/>
      </g>
     </g>
    </g>
    <g id="ytick_15">
     <g id="line2d_21">
      <g>
       <use xlink:href="#m2d897423c1" x="57.6" y="276.670651" style="stroke: #000000; stroke-width: 0.6"/>
      </g>
     </g>
    </g>
    <g id="ytick_16">
     <g id="line2d_22">
      <g>
       <use xlink:href="#m2d897423c1" x="57.6" y="273.975521" style="stroke: #000000; stroke-width: 0.6"/>
      </g>
     </g>
    </g>
    <g id="ytick_17">
     <g id="line2d_23">
      <g>
       <use xlink:href="#m2d897423c1" x="57.6" y="271.696821" style="stroke: #000000; stroke-width: 0.6"/>
      </g>
     </g>
    </g>
    <g id="ytick_18">
     <g id="line2d_24">
      <g>
       <use xlink:href="#m2d897423c1" x="57.6" y="269.722921" style="stroke: #000000; stroke-width: 0.6"/>
      </g>
     </g>
    </g>
    <g id="ytick_19">
     <g id="line2d_25">
      <g>
       <use xlink:href="#m2d897423c1" x="57.6" y="267.981818" style="stroke: #000000; stroke-width: 0.6"/>
      </g>
     </g>
    </g>
    <g id="ytick_20">
     <g id="line2d_26">
      <g>
       <use xlink:href="#m2d897423c1" x="57.6" y="256.178045" style="stroke: #000000; stroke-width: 0.6"/>
      </g>
     </g>
    </g>
    <g id="ytick_21">
     <g id="line2d_27">
      <g>
       <use xlink:href="#m2d897423c1" x="57.6" y="250.184342" style="stroke: #000000; stroke-width: 0.6"/>
      </g>
     </g>
    </g>
    <g id="ytick_22">
     <g id="line2d_28">
      <g>
       <use xlink:href="#m2d897423c1" x="57.6" y="245.931742" style="stroke: #000000; stroke-width: 0.6"/>
      </g>
     </g>
    </g>
    <g id="ytick_23">
     <g id="line2d_29">
      <g>
       <use xlink:href="#m2d897423c1" x="57.6" y="242.633169" style="stroke: #000000; stroke-width: 0.6"/>
      </g>
     </g>
    </g>
    <g id="ytick_24">
     <g id="line2d_30">
      <g>
       <use xlink:href="#m2d897423c1" x="57.6" y="239.938039" style="stroke: #000000; stroke-width: 0.6"/>
      </g>
     </g>
    </g>
    <g id="ytick_25">
     <g id="line2d_31">
      <g>
       <use xlink:href="#m2d897423c1" x="57.6" y="237.659338" style="stroke: #000000; stroke-width: 0.6"/>
      </g>
     </g>
    </g>
    <g id="ytick_26">
     <g id="line2d_32">
      <g>
       <use xlink:href="#m2d897423c1" x="57.6" y="235.685439" style="stroke: #000000; stroke-width: 0.6"/>
      </g>
     </g>
    </g>
    <g id="ytick_27">
     <g id="line2d_33">
      <g>
       <use xlink:href="#m2d897423c1" x="57.6" y="233.944335" style="stroke: #000000; stroke-width: 0.6"/>
      </g>
     </g>
    </g>
    <g id="ytick_28">
     <g id="line2d_34">
      <g>
       <use xlink:href="#m2d897423c1" x="57.6" y="222.140563" style="stroke: #000000; stroke-width: 0.6"/>
      </g>
     </g>
    </g>
    <g id="ytick_29">
     <g id="line2d_35">
      <g>
       <use xlink:href="#m2d897423c1" x="57.6" y="216.146859" style="stroke: #000000; stroke-width: 0.6"/>
      </g>
     </g>
    </g>
    <g id="ytick_30">
     <g id="line2d_36">
      <g>
       <use xlink:href="#m2d897423c1" x="57.6" y="211.894259" style="stroke: #000000; stroke-width: 0.6"/>
      </g>
     </g>
    </g>
    <g id="ytick_31">
     <g id="line2d_37">
      <g>
       <use xlink:href="#m2d897423c1" x="57.6" y="208.595687" style="stroke: #000000; stroke-width: 0.6"/>
      </g>
     </g>
    </g>
    <g id="ytick_32">
     <g id="line2d_38">
      <g>
       <use xlink:href="#m2d897423c1" x="57.6" y="205.900556" style="stroke: #000000; stroke-width: 0.6"/>
      </g>
     </g>
    </g>
    <g id="ytick_33">
     <g id="line2d_39">
      <g>
       <use xlink:href="#m2d897423c1" x="57.6" y="203.621856" style="stroke: #000000; stroke-width: 0.6"/>
      </g>
     </g>
    </g>
    <g id="ytick_34">
     <g id="line2d_40">
      <g>
       <use xlink:href="#m2d897423c1" x="57.6" y="201.647956" style="stroke: #000000; stroke-width: 0.6"/>
      </g>
     </g>
    </g>
    <g id="ytick_35">
     <g id="line2d_41">
      <g>
       <use xlink:href="#m2d897423c1" x="57.6" y="199.906853" style="stroke: #000000; stroke-width: 0.6"/>
      </g>
     </g>
    </g>
    <g id="ytick_36">
     <g id="line2d_42">
      <g>
       <use xlink:href="#m2d897423c1" x="57.6" y="188.10308" style="stroke: #000000; stroke-width: 0.6"/>
      </g>
     </g>
    </g>
    <g id="ytick_37">
     <g id="line2d_43">
      <g>
       <use xlink:href="#m2d897423c1" x="57.6" y="182.109377" style="stroke: #000000; stroke-width: 0.6"/>
      </g>
     </g>
    </g>
    <g id="ytick_38">
     <g id="line2d_44">
      <g>
       <use xlink:href="#m2d897423c1" x="57.6" y="177.856777" style="stroke: #000000; stroke-width: 0.6"/>
      </g>
     </g>
    </g>
    <g id="ytick_39">
     <g id="line2d_45">
      <g>
       <use xlink:href="#m2d897423c1" x="57.6" y="174.558204" style="stroke: #000000; stroke-width: 0.6"/>
      </g>
     </g>
    </g>
    <g id="ytick_40">
     <g id="line2d_46">
      <g>
       <use xlink:href="#m2d897423c1" x="57.6" y="171.863074" style="stroke: #000000; stroke-width: 0.6"/>
      </g>
     </g>
    </g>
    <g id="ytick_41">
     <g id="line2d_47">
      <g>
       <use xlink:href="#m2d897423c1" x="57.6" y="169.584374" style="stroke: #000000; stroke-width: 0.6"/>
      </g>
     </g>
    </g>
    <g id="ytick_42">
     <g id="line2d_48">
      <g>
       <use xlink:href="#m2d897423c1" x="57.6" y="167.610474" style="stroke: #000000; stroke-width: 0.6"/>
      </g>
     </g>
    </g>
    <g id="ytick_43">
     <g id="line2d_49">
      <g>
       <use xlink:href="#m2d897423c1" x="57.6" y="165.869371" style="stroke: #000000; stroke-width: 0.6"/>
      </g>
     </g>
    </g>
    <g id="ytick_44">
     <g id="line2d_50">
      <g>
       <use xlink:href="#m2d897423c1" x="57.6" y="154.065598" style="stroke: #000000; stroke-width: 0.6"/>
      </g>
     </g>
    </g>
    <g id="ytick_45">
     <g id="line2d_51">
      <g>
       <use xlink:href="#m2d897423c1" x="57.6" y="148.071895" style="stroke: #000000; stroke-width: 0.6"/>
      </g>
     </g>
    </g>
    <g id="ytick_46">
     <g id="line2d_52">
      <g>
       <use xlink:href="#m2d897423c1" x="57.6" y="143.819295" style="stroke: #000000; stroke-width: 0.6"/>
      </g>
     </g>
    </g>
    <g id="ytick_47">
     <g id="line2d_53">
      <g>
       <use xlink:href="#m2d897423c1" x="57.6" y="140.520722" style="stroke: #000000; stroke-width: 0.6"/>
      </g>
     </g>
    </g>
    <g id="ytick_48">
     <g id="line2d_54">
      <g>
       <use xlink:href="#m2d897423c1" x="57.6" y="137.825592" style="stroke: #000000; stroke-width: 0.6"/>
      </g>
     </g>
    </g>
    <g id="ytick_49">
     <g id="line2d_55">
      <g>
       <use xlink:href="#m2d897423c1" x="57.6" y="135.546891" style="stroke: #000000; stroke-width: 0.6"/>
      </g>
     </g>
    </g>
    <g id="ytick_50">
     <g id="line2d_56">
      <g>
       <use xlink:href="#m2d897423c1" x="57.6" y="133.572992" style="stroke: #000000; stroke-width: 0.6"/>
      </g>
     </g>
    </g>
    <g id="ytick_51">
     <g id="line2d_57">
      <g>
       <use xlink:href="#m2d897423c1" x="57.6" y="131.831888" style="stroke: #000000; stroke-width: 0.6"/>
      </g>
     </g>
    </g>
    <g id="ytick_52">
     <g id="line2d_58">
      <g>
       <use xlink:href="#m2d897423c1" x="57.6" y="120.028115" style="stroke: #000000; stroke-width: 0.6"/>
      </g>
     </g>
    </g>
    <g id="ytick_53">
     <g id="line2d_59">
      <g>
       <use xlink:href="#m2d897423c1" x="57.6" y="114.034412" style="stroke: #000000; stroke-width: 0.6"/>
      </g>
     </g>
    </g>
    <g id="ytick_54">
     <g id="line2d_60">
      <g>
       <use xlink:href="#m2d897423c1" x="57.6" y="109.781812" style="stroke: #000000; stroke-width: 0.6"/>
      </g>
     </g>
    </g>
    <g id="ytick_55">
     <g id="line2d_61">
      <g>
       <use xlink:href="#m2d897423c1" x="57.6" y="106.483239" style="stroke: #000000; stroke-width: 0.6"/>
      </g>
     </g>
    </g>
    <g id="ytick_56">
     <g id="line2d_62">
      <g>
       <use xlink:href="#m2d897423c1" x="57.6" y="103.788109" style="stroke: #000000; stroke-width: 0.6"/>
      </g>
     </g>
    </g>
    <g id="ytick_57">
     <g id="line2d_63">
      <g>
       <use xlink:href="#m2d897423c1" x="57.6" y="101.509409" style="stroke: #000000; stroke-width: 0.6"/>
      </g>
     </g>
    </g>
    <g id="ytick_58">
     <g id="line2d_64">
      <g>
       <use xlink:href="#m2d897423c1" x="57.6" y="99.535509" style="stroke: #000000; stroke-width: 0.6"/>
      </g>
     </g>
    </g>
    <g id="ytick_59">
     <g id="line2d_65">
      <g>
       <use xlink:href="#m2d897423c1" x="57.6" y="97.794406" style="stroke: #000000; stroke-width: 0.6"/>
      </g>
     </g>
    </g>
    <g id="ytick_60">
     <g id="line2d_66">
      <g>
       <use xlink:href="#m2d897423c1" x="57.6" y="85.990633" style="stroke: #000000; stroke-width: 0.6"/>
      </g>
     </g>
    </g>
    <g id="ytick_61">
     <g id="line2d_67">
      <g>
       <use xlink:href="#m2d897423c1" x="57.6" y="79.99693" style="stroke: #000000; stroke-width: 0.6"/>
      </g>
     </g>
    </g>
    <g id="ytick_62">
     <g id="line2d_68">
      <g>
       <use xlink:href="#m2d897423c1" x="57.6" y="75.74433" style="stroke: #000000; stroke-width: 0.6"/>
      </g>
     </g>
    </g>
    <g id="ytick_63">
     <g id="line2d_69">
      <g>
       <use xlink:href="#m2d897423c1" x="57.6" y="72.445757" style="stroke: #000000; stroke-width: 0.6"/>
      </g>
     </g>
    </g>
    <g id="ytick_64">
     <g id="line2d_70">
      <g>
       <use xlink:href="#m2d897423c1" x="57.6" y="69.750627" style="stroke: #000000; stroke-width: 0.6"/>
      </g>
     </g>
    </g>
    <g id="ytick_65">
     <g id="line2d_71">
      <g>
       <use xlink:href="#m2d897423c1" x="57.6" y="67.471927" style="stroke: #000000; stroke-width: 0.6"/>
      </g>
     </g>
    </g>
    <g id="ytick_66">
     <g id="line2d_72">
      <g>
       <use xlink:href="#m2d897423c1" x="57.6" y="65.498027" style="stroke: #000000; stroke-width: 0.6"/>
      </g>
     </g>
    </g>
    <g id="ytick_67">
     <g id="line2d_73">
      <g>
       <use xlink:href="#m2d897423c1" x="57.6" y="63.756924" style="stroke: #000000; stroke-width: 0.6"/>
      </g>
     </g>
    </g>
    <g id="ytick_68">
     <g id="line2d_74">
      <g>
       <use xlink:href="#m2d897423c1" x="57.6" y="51.953151" style="stroke: #000000; stroke-width: 0.6"/>
      </g>
     </g>
    </g>
    <g id="ytick_69">
     <g id="line2d_75">
      <g>
       <use xlink:href="#m2d897423c1" x="57.6" y="45.959448" style="stroke: #000000; stroke-width: 0.6"/>
      </g>
     </g>
    </g>
    <g id="ytick_70">
     <g id="line2d_76">
      <g>
       <use xlink:href="#m2d897423c1" x="57.6" y="41.706848" style="stroke: #000000; stroke-width: 0.6"/>
      </g>
     </g>
    </g>
   </g>
   <g id="line2d_77">
    <defs>
     <path id="m1dfcc2051b" d="M 0 3 
C 0.795609 3 1.55874 2.683901 2.12132 2.12132 
C 2.683901 1.55874 3 0.795609 3 0 
C 3 -0.795609 2.683901 -1.55874 2.12132 -2.12132 
C 1.55874 -2.683901 0.795609 -3 0 -3 
C -0.795609 -3 -1.55874 -2.683901 -2.12132 -2.12132 
C -2.683901 -1.55874 -3 -0.795609 -3 0 
C -3 0.795609 -2.683901 1.55874 -2.12132 2.12132 
C -1.55874 2.683901 -0.795609 3 0 3 
z
" style="stroke: #0000ff"/>
    </defs>
    <g clip-path="url(#pbe0e328f0d)">
     <use xlink:href="#m1dfcc2051b" x="73.832727" y="295.488" style="fill: #0000ff; stroke: #0000ff"/>
    </g>
   </g>
   <g id="line2d_78">
    <defs>
     <path id="m012a351cc7" d="M 0 3 
C 0.795609 3 1.55874 2.683901 2.12132 2.12132 
C 2.683901 1.55874 3 0.795609 3 0 
C 3 -0.795609 2.683901 -1.55874 2.12132 -2.12132 
C 1.55874 -2.683901 0.795609 -3 0 -3 
C -0.795609 -3 -1.55874 -2.683901 -2.12132 -2.12132 
C -2.683901 -1.55874 -3 -0.795609 -3 0 
C -3 0.795609 -2.683901 1.55874 -2.12132 2.12132 
C -1.55874 2.683901 -0.795609 3 0 3 
z
" style="stroke: #ff0000"/>
    </defs>
    <g clip-path="url(#pbe0e328f0d)">
     <use xlink:href="#m012a351cc7" x="73.832727" y="255.741098" style="fill: #ff0000; stroke: #ff0000"/>
    </g>
   </g>
   <g id="line2d_79">
    <g clip-path="url(#pbe0e328f0d)">
     <use xlink:href="#m1dfcc2051b" x="84.654545" y="295.488" style="fill: #0000ff; stroke: #0000ff"/>
    </g>
   </g>
   <g id="line2d_80">
    <g clip-path="url(#pbe0e328f0d)">
     <use xlink:href="#m012a351cc7" x="84.654545" y="283.737115" style="fill: #ff0000; stroke: #ff0000"/>
    </g>
   </g>
   <g id="line2d_81">
    <g clip-path="url(#pbe0e328f0d)">
     <use xlink:href="#m1dfcc2051b" x="95.476364" y="295.488" style="fill: #0000ff; stroke: #0000ff"/>
    </g>
   </g>
   <g id="line2d_82">
    <g clip-path="url(#pbe0e328f0d)">
     <use xlink:href="#m012a351cc7" x="95.476364" y="283.267797" style="fill: #ff0000; stroke: #ff0000"/>
    </g>
   </g>
   <g id="line2d_83">
    <g clip-path="url(#pbe0e328f0d)">
     <use xlink:href="#m1dfcc2051b" x="106.298182" y="295.488" style="fill: #0000ff; stroke: #0000ff"/>
    </g>
   </g>
   <g id="line2d_84">
    <g clip-path="url(#pbe0e328f0d)">
     <use xlink:href="#m012a351cc7" x="106.298182" y="284.722967" style="fill: #ff0000; stroke: #ff0000"/>
    </g>
   </g>
   <g id="line2d_85">
    <g clip-path="url(#pbe0e328f0d)">
     <use xlink:href="#m1dfcc2051b" x="117.12" y="295.488" style="fill: #0000ff; stroke: #0000ff"/>
    </g>
   </g>
   <g id="line2d_86">
    <g clip-path="url(#pbe0e328f0d)">
     <use xlink:href="#m012a351cc7" x="117.12" y="285.241697" style="fill: #ff0000; stroke: #ff0000"/>
    </g>
   </g>
   <g id="line2d_87">
    <g clip-path="url(#pbe0e328f0d)">
     <use xlink:href="#m1dfcc2051b" x="127.941818" y="294.468127" style="fill: #0000ff; stroke: #0000ff"/>
    </g>
   </g>
   <g id="line2d_88">
    <g clip-path="url(#pbe0e328f0d)">
     <use xlink:href="#m012a351cc7" x="127.941818" y="284.221824" style="fill: #ff0000; stroke: #ff0000"/>
    </g>
   </g>
   <g id="line2d_89">
    <g clip-path="url(#pbe0e328f0d)">
     <use xlink:href="#m1dfcc2051b" x="138.763636" y="293.5141" style="fill: #0000ff; stroke: #0000ff"/>
    </g>
   </g>
   <g id="line2d_90">
    <g clip-path="url(#pbe0e328f0d)">
     <use xlink:href="#m012a351cc7" x="138.763636" y="285.241697" style="fill: #ff0000; stroke: #ff0000"/>
    </g>
   </g>
   <g id="line2d_91">
    <g clip-path="url(#pbe0e328f0d)">
     <use xlink:href="#m1dfcc2051b" x="149.585455" y="282.371626" style="fill: #0000ff; stroke: #0000ff"/>
    </g>
   </g>
   <g id="line2d_92">
    <g clip-path="url(#pbe0e328f0d)">
     <use xlink:href="#m012a351cc7" x="149.585455" y="284.221824" style="fill: #ff0000; stroke: #ff0000"/>
    </g>
   </g>
   <g id="line2d_93">
    <g clip-path="url(#pbe0e328f0d)">
     <use xlink:href="#m1dfcc2051b" x="160.407273" y="283.267797" style="fill: #0000ff; stroke: #0000ff"/>
    </g>
   </g>
   <g id="line2d_94">
    <g clip-path="url(#pbe0e328f0d)">
     <use xlink:href="#m012a351cc7" x="160.407273" y="284.221824" style="fill: #ff0000; stroke: #ff0000"/>
    </g>
   </g>
   <g id="line2d_95">
    <g clip-path="url(#pbe0e328f0d)">
     <use xlink:href="#m1dfcc2051b" x="171.229091" y="282.812921" style="fill: #0000ff; stroke: #0000ff"/>
    </g>
   </g>
   <g id="line2d_96">
    <g clip-path="url(#pbe0e328f0d)">
     <use xlink:href="#m012a351cc7" x="171.229091" y="284.221824" style="fill: #ff0000; stroke: #ff0000"/>
    </g>
   </g>
   <g id="line2d_97">
    <g clip-path="url(#pbe0e328f0d)">
     <use xlink:href="#m1dfcc2051b" x="182.050909" y="283.267797" style="fill: #0000ff; stroke: #0000ff"/>
    </g>
   </g>
   <g id="line2d_98">
    <g clip-path="url(#pbe0e328f0d)">
     <use xlink:href="#m012a351cc7" x="182.050909" y="281.526694" style="fill: #ff0000; stroke: #ff0000"/>
    </g>
   </g>
   <g id="line2d_99">
    <g clip-path="url(#pbe0e328f0d)">
     <use xlink:href="#m1dfcc2051b" x="192.872727" y="281.121674" style="fill: #0000ff; stroke: #0000ff"/>
    </g>
   </g>
   <g id="line2d_100">
    <g clip-path="url(#pbe0e328f0d)">
     <use xlink:href="#m012a351cc7" x="192.872727" y="279.969224" style="fill: #ff0000; stroke: #ff0000"/>
    </g>
   </g>
   <g id="line2d_101">
    <g clip-path="url(#pbe0e328f0d)">
     <use xlink:href="#m1dfcc2051b" x="203.694545" y="275.809303" style="fill: #0000ff; stroke: #0000ff"/>
    </g>
   </g>
   <g id="line2d_102">
    <g clip-path="url(#pbe0e328f0d)">
     <use xlink:href="#m012a351cc7" x="203.694545" y="271.487139" style="fill: #ff0000; stroke: #ff0000"/>
    </g>
   </g>
   <g id="line2d_103">
    <g clip-path="url(#pbe0e328f0d)">
     <use xlink:href="#m1dfcc2051b" x="214.516364" y="268.82675" style="fill: #0000ff; stroke: #0000ff"/>
    </g>
   </g>
   <g id="line2d_104">
    <g clip-path="url(#pbe0e328f0d)">
     <use xlink:href="#m012a351cc7" x="214.516364" y="265.703118" style="fill: #ff0000; stroke: #ff0000"/>
    </g>
   </g>
   <g id="line2d_105">
    <g clip-path="url(#pbe0e328f0d)">
     <use xlink:href="#m1dfcc2051b" x="225.338182" y="259.850873" style="fill: #0000ff; stroke: #0000ff"/>
    </g>
   </g>
   <g id="line2d_106">
    <g clip-path="url(#pbe0e328f0d)">
     <use xlink:href="#m012a351cc7" x="225.338182" y="259.569297" style="fill: #ff0000; stroke: #ff0000"/>
    </g>
   </g>
   <g id="line2d_107">
    <g clip-path="url(#pbe0e328f0d)">
     <use xlink:href="#m1dfcc2051b" x="236.16" y="250.233698" style="fill: #0000ff; stroke: #0000ff"/>
    </g>
   </g>
   <g id="line2d_108">
    <g clip-path="url(#pbe0e328f0d)">
     <use xlink:href="#m012a351cc7" x="236.16" y="249.988547" style="fill: #ff0000; stroke: #ff0000"/>
    </g>
   </g>
   <g id="line2d_109">
    <g clip-path="url(#pbe0e328f0d)">
     <use xlink:href="#m1dfcc2051b" x="246.981818" y="240.67036" style="fill: #0000ff; stroke: #0000ff"/>
    </g>
   </g>
   <g id="line2d_110">
    <g clip-path="url(#pbe0e328f0d)">
     <use xlink:href="#m012a351cc7" x="246.981818" y="240.67036" style="fill: #ff0000; stroke: #ff0000"/>
    </g>
   </g>
   <g id="line2d_111">
    <g clip-path="url(#pbe0e328f0d)">
     <use xlink:href="#m1dfcc2051b" x="257.803636" y="231.44208" style="fill: #0000ff; stroke: #0000ff"/>
    </g>
   </g>
   <g id="line2d_112">
    <g clip-path="url(#pbe0e328f0d)">
     <use xlink:href="#m012a351cc7" x="257.803636" y="230.844186" style="fill: #ff0000; stroke: #ff0000"/>
    </g>
   </g>
   <g id="line2d_113">
    <g clip-path="url(#pbe0e328f0d)">
     <use xlink:href="#m1dfcc2051b" x="268.625455" y="220.061712" style="fill: #0000ff; stroke: #0000ff"/>
    </g>
   </g>
   <g id="line2d_114">
    <g clip-path="url(#pbe0e328f0d)">
     <use xlink:href="#m012a351cc7" x="268.625455" y="220.564626" style="fill: #ff0000; stroke: #ff0000"/>
    </g>
   </g>
   <g id="line2d_115">
    <g clip-path="url(#pbe0e328f0d)">
     <use xlink:href="#m1dfcc2051b" x="279.447273" y="206.710748" style="fill: #0000ff; stroke: #0000ff"/>
    </g>
   </g>
   <g id="line2d_116">
    <g clip-path="url(#pbe0e328f0d)">
     <use xlink:href="#m012a351cc7" x="279.447273" y="208.702504" style="fill: #ff0000; stroke: #ff0000"/>
    </g>
   </g>
   <g id="line2d_117">
    <g clip-path="url(#pbe0e328f0d)">
     <use xlink:href="#m1dfcc2051b" x="290.269091" y="194.141568" style="fill: #0000ff; stroke: #0000ff"/>
    </g>
   </g>
   <g id="line2d_118">
    <g clip-path="url(#pbe0e328f0d)">
     <use xlink:href="#m012a351cc7" x="290.269091" y="195.040171" style="fill: #ff0000; stroke: #ff0000"/>
    </g>
   </g>
   <g id="line2d_119">
    <g clip-path="url(#pbe0e328f0d)">
     <use xlink:href="#m1dfcc2051b" x="301.090909" y="182.602366" style="fill: #0000ff; stroke: #0000ff"/>
    </g>
   </g>
   <g id="line2d_120">
    <g clip-path="url(#pbe0e328f0d)">
     <use xlink:href="#m012a351cc7" x="301.090909" y="183.761317" style="fill: #ff0000; stroke: #ff0000"/>
    </g>
   </g>
   <g id="line2d_121">
    <g clip-path="url(#pbe0e328f0d)">
     <use xlink:href="#m1dfcc2051b" x="311.912727" y="146.467197" style="fill: #0000ff; stroke: #0000ff"/>
    </g>
   </g>
   <g id="line2d_122">
    <g clip-path="url(#pbe0e328f0d)">
     <use xlink:href="#m012a351cc7" x="311.912727" y="149.125859" style="fill: #ff0000; stroke: #ff0000"/>
    </g>
   </g>
   <g id="line2d_123">
    <g clip-path="url(#pbe0e328f0d)">
     <use xlink:href="#m1dfcc2051b" x="322.734545" y="120.962454" style="fill: #0000ff; stroke: #0000ff"/>
    </g>
   </g>
   <g id="line2d_124">
    <g clip-path="url(#pbe0e328f0d)">
     <use xlink:href="#m012a351cc7" x="322.734545" y="126.091934" style="fill: #ff0000; stroke: #ff0000"/>
    </g>
   </g>
   <g id="line2d_125">
    <g clip-path="url(#pbe0e328f0d)">
     <use xlink:href="#m1dfcc2051b" x="333.556364" y="115.687278" style="fill: #0000ff; stroke: #0000ff"/>
    </g>
   </g>
   <g id="line2d_126">
    <g clip-path="url(#pbe0e328f0d)">
     <use xlink:href="#m012a351cc7" x="333.556364" y="115.350967" style="fill: #ff0000; stroke: #ff0000"/>
    </g>
   </g>
   <g id="line2d_127">
    <g clip-path="url(#pbe0e328f0d)">
     <use xlink:href="#m1dfcc2051b" x="344.378182" y="187.985292" style="fill: #0000ff; stroke: #0000ff"/>
    </g>
   </g>
   <g id="line2d_128">
    <g clip-path="url(#pbe0e328f0d)">
     <use xlink:href="#m012a351cc7" x="344.378182" y="104.982376" style="fill: #ff0000; stroke: #ff0000"/>
    </g>
   </g>
   <g id="line2d_129">
    <g clip-path="url(#pbe0e328f0d)">
     <use xlink:href="#m1dfcc2051b" x="355.2" y="187.737346" style="fill: #0000ff; stroke: #0000ff"/>
    </g>
   </g>
   <g id="line2d_130">
    <g clip-path="url(#pbe0e328f0d)">
     <use xlink:href="#m012a351cc7" x="355.2" y="95.179154" style="fill: #ff0000; stroke: #ff0000"/>
    </g>
   </g>
   <g id="line2d_131">
    <g clip-path="url(#pbe0e328f0d)">
     <use xlink:href="#m1dfcc2051b" x="366.021818" y="187.258476" style="fill: #0000ff; stroke: #0000ff"/>
    </g>
   </g>
   <g id="line2d_132">
    <g clip-path="url(#pbe0e328f0d)">
     <use xlink:href="#m012a351cc7" x="366.021818" y="84.587671" style="fill: #ff0000; stroke: #ff0000"/>
    </g>
   </g>
   <g id="line2d_133">
    <g clip-path="url(#pbe0e328f0d)">
     <use xlink:href="#m1dfcc2051b" x="376.843636" y="186.439706" style="fill: #0000ff; stroke: #0000ff"/>
    </g>
   </g>
   <g id="line2d_134">
    <g clip-path="url(#pbe0e328f0d)">
     <use xlink:href="#m012a351cc7" x="376.843636" y="74.669841" style="fill: #ff0000; stroke: #ff0000"/>
    </g>
   </g>
   <g id="line2d_135">
    <g clip-path="url(#pbe0e328f0d)">
     <use xlink:href="#m1dfcc2051b" x="387.665455" y="184.690826" style="fill: #0000ff; stroke: #0000ff"/>
    </g>
   </g>
   <g id="line2d_136">
    <g clip-path="url(#pbe0e328f0d)">
     <use xlink:href="#m012a351cc7" x="387.665455" y="64.611332" style="fill: #ff0000; stroke: #ff0000"/>
    </g>
   </g>
   <g id="line2d_137">
    <g clip-path="url(#pbe0e328f0d)">
     <use xlink:href="#m1dfcc2051b" x="398.487273" y="181.602273" style="fill: #0000ff; stroke: #0000ff"/>
    </g>
   </g>
   <g id="line2d_138">
    <g clip-path="url(#pbe0e328f0d)">
     <use xlink:href="#m012a351cc7" x="398.487273" y="53.568" style="fill: #ff0000; stroke: #ff0000"/>
    </g>
   </g>
   <g id="line2d_139">
    <path d="M 73.832727 295.488 
L 84.654545 295.488 
L 95.476364 295.488 
L 106.298182 295.488 
L 117.12 295.488 
L 127.941818 294.468127 
L 138.763636 293.5141 
L 149.585455 282.371626 
L 160.407273 283.267797 
L 171.229091 282.812921 
L 182.050909 283.267797 
L 192.872727 281.121674 
L 203.694545 275.809303 
L 214.516364 268.82675 
L 225.338182 259.850873 
L 236.16 250.233698 
L 246.981818 240.67036 
L 257.803636 231.44208 
L 268.625455 220.061712 
L 279.447273 206.710748 
L 290.269091 194.141568 
L 301.090909 182.602366 
L 311.912727 146.467197 
L 322.734545 120.962454 
L 333.556364 115.687278 
L 344.378182 187.985292 
L 355.2 187.737346 
L 366.021818 187.258476 
L 376.843636 186.439706 
L 387.665455 184.690826 
L 398.487273 181.602273 
" clip-path="url(#pbe0e328f0d)" style="fill: none; stroke: #0000ff; stroke-width: 1.5; stroke-linecap: square"/>
   </g>
   <g id="line2d_140">
    <path d="M 73.832727 255.741098 
L 84.654545 283.737115 
L 95.476364 283.267797 
L 106.298182 284.722967 
L 117.12 285.241697 
L 127.941818 284.221824 
L 138.763636 285.241697 
L 149.585455 284.221824 
L 160.407273 284.221824 
L 171.229091 284.221824 
L 182.050909 281.526694 
L 192.872727 279.969224 
L 203.694545 271.487139 
L 214.516364 265.703118 
L 225.338182 259.569297 
L 236.16 249.988547 
L 246.981818 240.67036 
L 257.803636 230.844186 
L 268.625455 220.564626 
L 279.447273 208.702504 
L 290.269091 195.040171 
L 301.090909 183.761317 
L 311.912727 149.125859 
L 322.734545 126.091934 
L 333.556364 115.350967 
L 344.378182 104.982376 
L 355.2 95.179154 
L 366.021818 84.587671 
L 376.843636 74.669841 
L 387.665455 64.611332 
L 398.487273 53.568 
" clip-path="url(#pbe0e328f0d)" style="fill: none; stroke: #ff0000; stroke-width: 1.5; stroke-linecap: square"/>
   </g>
   <g id="patch_3">
    <path d="M 57.6 307.584 
L 57.6 41.472 
" style="fill: none; stroke: #000000; stroke-width: 0.8; stroke-linejoin: miter; stroke-linecap: square"/>
   </g>
   <g id="patch_4">
    <path d="M 414.72 307.584 
L 414.72 41.472 
" style="fill: none; stroke: #000000; stroke-width: 0.8; stroke-linejoin: miter; stroke-linecap: square"/>
   </g>
   <g id="patch_5">
    <path d="M 57.6 307.584 
L 414.72 307.584 
" style="fill: none; stroke: #000000; stroke-width: 0.8; stroke-linejoin: miter; stroke-linecap: square"/>
   </g>
   <g id="patch_6">
    <path d="M 57.6 41.472 
L 414.72 41.472 
" style="fill: none; stroke: #000000; stroke-width: 0.8; stroke-linejoin: miter; stroke-linecap: square"/>
   </g>
   <g id="text_15">
    <!-- calloc -->
    <g transform="translate(216 35.472) scale(0.14 -0.14)">
     <defs>
      <path id="DejaVuSans-63" d="M 3122 3366 
L 3122 2828 
Q 2878 2963 2633 3030 
Q 2388 3097 2138 3097 
Q 1578 3097 1268 2742 
Q 959 2388 959 1747 
Q 959 1106 1268 751 
Q 1578 397 2138 397 
Q 2388 397 2633 464 
Q 2878 531 3122 666 
L 3122 134 
Q 2881 22 2623 -34 
Q 2366 -91 2075 -91 
Q 1284 -91 818 406 
Q 353 903 353 1747 
Q 353 2603 823 3093 
Q 1294 3584 2113 3584 
Q 2378 3584 2631 3529 
Q 2884 3475 3122 3366 
z
" transform="scale(0.015625)"/>
      <path id="DejaVuSans-61" d="M 2194 1759 
Q 1497 1759 1228 1600 
Q 959 1441 959 1056 
Q 959 750 1161 570 
Q 1363 391 1709 391 
Q 2188 391 2477 730 
Q 2766 1069 2766 1631 
L 2766 1759 
L 2194 1759 
z
M 3341 1997 
L 3341 0 
L 2766 0 
L 2766 531 
Q 2569 213 2275 61 
Q 1981 -91 1556 -91 
Q 1019 -91 701 211 
Q 384 513 384 1019 
Q 384 1609 779 1909 
Q 1175 2209 1959 2209 
L 2766 2209 
L 2766 2266 
Q 2766 2663 2505 2880 
Q 2244 3097 1772 3097 
Q 1472 3097 1187 3025 
Q 903 2953 641 2809 
L 641 3341 
Q 956 3463 1253 3523 
Q 1550 3584 1831 3584 
Q 2591 3584 2966 3190 
Q 3341 2797 3341 1997 
z
" transform="scale(0.015625)"/>
      <path id="DejaVuSans-6c" d="M 603 4863 
L 1178 4863 
L 1178 0 
L 603 0 
L 603 4863 
z
" transform="scale(0.015625)"/>
     </defs>
     <use xlink:href="#DejaVuSans-63"/>
     <use xlink:href="#DejaVuSans-61" x="54.980469"/>
     <use xlink:href="#DejaVuSans-6c" x="116.259766"/>
     <use xlink:href="#DejaVuSans-6c" x="144.042969"/>
     <use xlink:href="#DejaVuSans-6f" x="171.826172"/>
     <use xlink:href="#DejaVuSans-63" x="233.007812"/>
    </g>
   </g>
   <g id="legend_1">
    <g id="patch_7">
     <path d="M 66 86.2995 
L 146.565 86.2995 
Q 148.965 86.2995 148.965 83.8995 
L 148.965 49.872 
Q 148.965 47.472 146.565 47.472 
L 66 47.472 
Q 63.6 47.472 63.6 49.872 
L 63.6 83.8995 
Q 63.6 86.2995 66 86.2995 
z
" style="fill: #ffffff; opacity: 0.8; stroke: #cccccc; stroke-linejoin: miter"/>
    </g>
    <g id="line2d_141">
     <path d="M 68.4 57.190125 
L 80.4 57.190125 
L 92.4 57.190125 
" style="fill: none; stroke: #0000ff; stroke-width: 1.5; stroke-linecap: square"/>
    </g>
    <g id="text_16">
     <!-- libc -->
     <g transform="translate(102 61.390125) scale(0.12 -0.12)">
      <defs>
       <path id="DejaVuSans-69" d="M 603 3500 
L 1178 3500 
L 1178 0 
L 603 0 
L 603 3500 
z
M 603 4863 
L 1178 4863 
L 1178 4134 
L 603 4134 
L 603 4863 
z
" transform="scale(0.015625)"/>
       <path id="DejaVuSans-62" d="M 3116 1747 
Q 3116 2381 2855 2742 
Q 2594 3103 2138 3103 
Q 1681 3103 1420 2742 
Q 1159 2381 1159 1747 
Q 1159 1113 1420 752 
Q 1681 391 2138 391 
Q 2594 391 2855 752 
Q 3116 1113 3116 1747 
z
M 1159 2969 
Q 1341 3281 1617 3432 
Q 1894 3584 2278 3584 
Q 2916 3584 3314 3078 
Q 3713 2572 3713 1747 
Q 3713 922 3314 415 
Q 2916 -91 2278 -91 
Q 1894 -91 1617 61 
Q 1341 213 1159 525 
L 1159 0 
L 581 0 
L 581 4863 
L 1159 4863 
L 1159 2969 
z
" transform="scale(0.015625)"/>
      </defs>
      <use xlink:href="#DejaVuSans-6c"/>
      <use xlink:href="#DejaVuSans-69" x="27.783203"/>
      <use xlink:href="#DejaVuSans-62" x="55.566406"/>
      <use xlink:href="#DejaVuSans-63" x="119.042969"/>
     </g>
    </g>
    <g id="line2d_142">
     <path d="M 68.4 74.803875 
L 80.4 74.803875 
L 92.4 74.803875 
" style="fill: none; stroke: #ff0000; stroke-width: 1.5; stroke-linecap: square"/>
    </g>
    <g id="text_17">
     <!-- challoc -->
     <g transform="translate(102 79.003875) scale(0.12 -0.12)">
      <defs>
       <path id="DejaVuSans-68" d="M 3513 2113 
L 3513 0 
L 2938 0 
L 2938 2094 
Q 2938 2591 2744 2837 
Q 2550 3084 2163 3084 
Q 1697 3084 1428 2787 
Q 1159 2491 1159 1978 
L 1159 0 
L 581 0 
L 581 4863 
L 1159 4863 
L 1159 2956 
Q 1366 3272 1645 3428 
Q 1925 3584 2291 3584 
Q 2894 3584 3203 3211 
Q 3513 2838 3513 2113 
z
" transform="scale(0.015625)"/>
      </defs>
      <use xlink:href="#DejaVuSans-63"/>
      <use xlink:href="#DejaVuSans-68" x="54.980469"/>
      <use xlink:href="#DejaVuSans-61" x="118.359375"/>
      <use xlink:href="#DejaVuSans-6c" x="179.638672"/>
      <use xlink:href="#DejaVuSans-6c" x="207.421875"/>
      <use xlink:href="#DejaVuSans-6f" x="235.205078"/>
      <use xlink:href="#DejaVuSans-63" x="296.386719"/>
     </g>
    </g>
   </g>
  </g>
 </g>
 <defs>
  <clipPath id="pbe0e328f0d">
   <rect x="57.6" y="41.472" width="357.12" height="266.112"/>
  </clipPath>
 </defs>
</svg>
